REM MD5 e3cd52984734e99231b9908768d6db51
FILE "'99 Koushien (Japan) (Demo).bin" BINARY
  TRACK 01 MODE2/2352
    INDEX 01 00:00:00
  TRACK 02 AUDIO
    INDEX 00 24:19:62
    INDEX 01 24:22:62
  TRACK 03 AUDIO
    INDEX 00 27:11:50
    INDEX 01 27:14:50
  TRACK 04 AUDIO
    INDEX 00 30:47:67
    INDEX 01 30:50:67
  TRACK 05 AUDIO
    INDEX 00 34:32:09
    INDEX 01 34:35:09
REM LEADOUT 37:35:45
